<?xml version="1.0" encoding="iso-8859-1"?>
<!-- Generator: Adobe Illustrator 19.0.0, SVG Export Plug-In . SVG Version: 6.00 Build 0)  -->
<svg version="1.1" id="Capa_1" xmlns="http://www.w3.org/2000/svg" xmlns:xlink="http://www.w3.org/1999/xlink" x="0px" y="0px"
	 viewBox="0 0 155.301 155.301" style="enable-background:new 0 0 155.301 155.301;" xml:space="preserve">
<g>
	<circle style="fill:#98E2ED;" cx="77.65" cy="77.65" r="77.65"/>
	<g>
		<g>
			<path style="fill:#353A42;" d="M119.414,96.013c-4.24-13.443-9.85-21.763-13.365-26.036c-1.935-11.916-4.157-23.457-4.649-24.865
				c-3.427-9.813-12.765-16.856-23.749-16.856c-11.502,0-21.199,7.721-24.194,18.262c-0.333,1.17-2.389,12.052-4.23,23.491
				c-3.519,4.283-9.111,12.595-13.341,26.004c-5.325,16.891,6.975,9.193,10.435,1.903c0.873,9.854,6.284,18.396,14.133,23.531
				c4.944,3.233,10.849,5.119,17.197,5.119c6.349,0,12.253-1.886,17.195-5.119c7.85-5.136,13.262-13.678,14.135-23.531
				C112.44,105.206,124.74,112.903,119.414,96.013z M77.65,121.066c-14.314,0-25.961-11.646-25.961-25.961
				c0-9.31,6.124-44.157,7.072-47.133c1.868-5.855,7.383-8.607,12.643-6.086c3.959,1.899,6.246,7.107,6.246,7.107
				s1.654-5.081,5.507-6.877c5.897-2.751,12.119,1.336,13.518,7.095c0.773,3.184,6.936,36.463,6.936,45.893
				C103.61,109.42,91.965,121.066,77.65,121.066z"/>
			<path style="fill:#FF802A;" d="M60.453,121.648c-2.792,0.213-5.265,1.545-5.111,5.545H67.98h19.339h12.639
				c0.153-4-2.318-5.332-5.112-5.545c-4.942,3.234-10.847,5.121-17.195,5.121C71.302,126.77,65.397,124.883,60.453,121.648z"/>
			<path style="fill:#FFFFFF;" d="M83.157,42.117c-3.853,1.796-5.507,6.877-5.507,6.877s-2.287-5.208-6.246-7.107
				c-5.26-2.521-10.774,0.23-12.643,6.086c-0.948,2.976-7.072,37.823-7.072,47.133c0,14.314,11.646,25.961,25.961,25.961
				c14.314,0,25.96-11.646,25.96-25.961c0-9.431-6.162-42.709-6.936-45.893C95.276,43.453,89.055,39.366,83.157,42.117z
				 M78.338,57.74c3.854,0,5.322,4.556,5.322,4.556l-5.322,3.855l-5.322-3.855C73.016,62.296,74.484,57.74,78.338,57.74z
				 M64.513,52.627c0.447-1.877,2.331-3.035,4.21-2.588c1.878,0.446,3.036,2.332,2.588,4.21c-0.445,1.876-2.33,3.035-4.208,2.588
				C65.225,56.39,64.065,54.506,64.513,52.627z M88.198,56.837c-1.876,0.447-3.762-0.712-4.208-2.588
				c-0.449-1.878,0.71-3.764,2.588-4.21c1.877-0.447,3.762,0.711,4.21,2.588C91.235,54.506,90.076,56.39,88.198,56.837z"/>
			<path style="fill:#FF802A;" d="M83.66,62.296c0,0-1.469-4.556-5.322-4.556c-3.854,0-5.322,4.556-5.322,4.556l5.322,3.855
				L83.66,62.296z"/>
			<path style="fill:#353A42;" d="M86.578,50.039c-1.878,0.446-3.037,2.332-2.588,4.21c0.446,1.876,2.332,3.035,4.208,2.588
				c1.878-0.447,3.037-2.331,2.59-4.21C90.34,50.75,88.455,49.592,86.578,50.039z M88.987,54.182
				c-0.44-0.725-1.256-1.251-2.296-1.081c-0.549,0.092-0.933,0.335-1.177,0.657c-0.1-0.945,0.545-1.817,1.495-1.973
				c0.982-0.162,1.91,0.505,2.072,1.487C89.134,53.59,89.092,53.9,88.987,54.182z"/>
			<path style="fill:#FFFFFF;" d="M87.01,51.785c-0.95,0.155-1.595,1.027-1.495,1.973c0.244-0.322,0.628-0.565,1.177-0.657
				c1.04-0.17,1.855,0.356,2.296,1.081c0.104-0.282,0.146-0.592,0.095-0.909C88.92,52.29,87.992,51.623,87.01,51.785z"/>
			<path style="fill:#353A42;" d="M67.103,56.837c1.878,0.447,3.763-0.712,4.208-2.588c0.448-1.878-0.71-3.764-2.588-4.21
				c-1.879-0.447-3.763,0.711-4.21,2.588C64.065,54.506,65.225,56.39,67.103,56.837z M66.219,53.272
				c0.162-0.982,1.088-1.649,2.072-1.487c0.95,0.155,1.596,1.027,1.493,1.973c-0.243-0.322-0.625-0.565-1.175-0.657
				c-1.04-0.17-1.854,0.356-2.297,1.081C66.211,53.9,66.166,53.59,66.219,53.272z"/>
			<path style="fill:#FFFFFF;" d="M68.609,53.101c0.55,0.092,0.932,0.335,1.175,0.657c0.103-0.945-0.543-1.817-1.493-1.973
				c-0.984-0.162-1.91,0.505-2.072,1.487c-0.053,0.317-0.008,0.627,0.094,0.909C66.755,53.457,67.569,52.931,68.609,53.101z"/>
		</g>
		<path style="opacity:0.3;fill:#FFFFFF;" d="M119.414,96.013c-4.24-13.443-9.85-21.763-13.365-26.036
			c-1.935-11.916-4.157-23.457-4.649-24.865c-3.427-9.813-12.765-16.856-23.749-16.856c-0.037,0-0.071,0.003-0.108,0.003v98.529
			h22.416c0.153-3.872-2.318-5.128-5.112-5.341c7.85-5.136,13.262-13.678,14.135-23.531
			C112.44,105.206,124.74,112.903,119.414,96.013z"/>
	</g>
</g>
<g>
</g>
<g>
</g>
<g>
</g>
<g>
</g>
<g>
</g>
<g>
</g>
<g>
</g>
<g>
</g>
<g>
</g>
<g>
</g>
<g>
</g>
<g>
</g>
<g>
</g>
<g>
</g>
<g>
</g>
</svg>
